<svg xmlns="http://www.w3.org/2000/svg" width="1100" height="620" viewBox="0 0 1100 620"><rect width="1100" height="620" fill="#f5f7f2"/><style>.b{fill:#fff;stroke:#236952;stroke-width:2}.h{fill:#236952}.t{font:16px Arial;fill:#173f34}.w{font:16px Arial;fill:#fff;font-weight:bold}</style><text x="40" y="42" class="t" font-size="26" font-weight="bold">CitaFácil · Modelo relacional</text><g transform="translate(40 80)"><rect class="b" width="200" height="120" rx="10"/><rect class="h" width="200" height="34" rx="10"/><text x="14" y="23" class="w">users</text><text x="14" y="62" class="t">id · email · role_id</text><text x="14" y="90" class="t">password_hash · active</text></g><g transform="translate(300 80)"><rect class="b" width="190" height="120" rx="10"/><rect class="h" width="190" height="34" rx="10"/><text x="14" y="23" class="w">roles</text><text x="14" y="62" class="t">id · name · kind</text></g><g transform="translate(550 80)"><rect class="b" width="220" height="120" rx="10"/><rect class="h" width="220" height="34" rx="10"/><text x="14" y="23" class="w">appointments</text><text x="14" y="62" class="t">client_id · user_id</text><text x="14" y="90" class="t">schedule_id · status</text></g><g transform="translate(830 80)"><rect class="b" width="220" height="120" rx="10"/><rect class="h" width="220" height="34" rx="10"/><text x="14" y="23" class="w">schedules</text><text x="14" y="62" class="t">professional_id</text><text x="14" y="90" class="t">date · time</text></g><g transform="translate(190 350)"><rect class="b" width="220" height="120" rx="10"/><rect class="h" width="220" height="34" rx="10"/><text x="14" y="23" class="w">services</text><text x="14" y="62" class="t">id · name · active</text></g><g transform="translate(500 350)"><rect class="b" width="240" height="120" rx="10"/><rect class="h" width="240" height="34" rx="10"/><text x="14" y="23" class="w">professionals</text><text x="14" y="62" class="t">id · name · service_id</text></g><g transform="translate(820 350)"><rect class="b" width="210" height="120" rx="10"/><rect class="h" width="210" height="34" rx="10"/><text x="14" y="23" class="w">sessions</text><text x="14" y="62" class="t">token_hash · user_id</text></g><path d="M240 140h60M490 140h60M770 140h60M660 200l-40 150M610 350l-200-150M300 350l70-150M740 410h80" stroke="#86a996" stroke-width="2" fill="none"/></svg>
